<?xml version="1.0" encoding="us-ascii" standalone="no"?><svg xmlns="http://www.w3.org/2000/svg" xmlns:xlink="http://www.w3.org/1999/xlink" contentStyleType="text/css" height="400px" preserveAspectRatio="none" style="width:346px;height:400px;background:#FFFFFF;" version="1.1" viewBox="0 0 346 400" width="346px" zoomAndPan="magnify"><defs/><g><rect fill="#FFFFFF" height="268.216" style="stroke:#181818;stroke-width:1.0;" width="10" x="98.5" y="75.0959"/><rect fill="#FFFFFF" height="154.744" style="stroke:#181818;stroke-width:1.0;" width="10" x="103.5" y="115.9199"/><rect fill="#005500" height="78.0959" style="stroke:#181818;stroke-width:1.0;" width="10" x="108.5" y="153.744"/><line style="stroke:#181818;stroke-width:0.5;stroke-dasharray:5.0,5.0;" x1="27" x2="27" y1="40.2719" y2="361.3119"/><line style="stroke:#181818;stroke-width:0.5;stroke-dasharray:5.0,5.0;" x1="103.5" x2="103.5" y1="40.2719" y2="361.3119"/><line style="stroke:#181818;stroke-width:0.5;stroke-dasharray:5.0,5.0;" x1="253" x2="253" y1="40.2719" y2="361.3119"/><line style="stroke:#181818;stroke-width:0.5;stroke-dasharray:5.0,5.0;" x1="310" x2="310" y1="194.3799" y2="361.3119"/><rect fill="#E2E2F0" height="34.2719" rx="2.5" ry="2.5" style="stroke:#181818;stroke-width:0.5;" width="45" x="5" y="5"/><text fill="#000000" font-family="sans-serif" font-size="14" lengthAdjust="spacing" textLength="31" x="12" y="28.2399">alice</text><rect fill="#E2E2F0" height="34.2719" rx="2.5" ry="2.5" style="stroke:#181818;stroke-width:0.5;" width="45" x="5" y="360.3119"/><text fill="#000000" font-family="sans-serif" font-size="14" lengthAdjust="spacing" textLength="31" x="12" y="383.5519">alice</text><rect fill="#E2E2F0" height="34.2719" rx="2.5" ry="2.5" style="stroke:#181818;stroke-width:0.5;" width="40" x="83.5" y="5"/><text fill="#000000" font-family="sans-serif" font-size="14" lengthAdjust="spacing" textLength="26" x="90.5" y="28.2399">bob</text><rect fill="#E2E2F0" height="34.2719" rx="2.5" ry="2.5" style="stroke:#181818;stroke-width:0.5;" width="40" x="83.5" y="360.3119"/><text fill="#000000" font-family="sans-serif" font-size="14" lengthAdjust="spacing" textLength="26" x="90.5" y="383.5519">bob</text><rect fill="#E2E2F0" height="34.2719" rx="2.5" ry="2.5" style="stroke:#181818;stroke-width:0.5;" width="35" x="236" y="5"/><text fill="#000000" font-family="sans-serif" font-size="14" lengthAdjust="spacing" textLength="21" x="243" y="28.2399">bill</text><rect fill="#E2E2F0" height="34.2719" rx="2.5" ry="2.5" style="stroke:#181818;stroke-width:0.5;" width="35" x="236" y="360.3119"/><text fill="#000000" font-family="sans-serif" font-size="14" lengthAdjust="spacing" textLength="21" x="243" y="383.5519">bill</text><rect fill="#E2E2F0" height="34.2719" rx="2.5" ry="2.5" style="stroke:#181818;stroke-width:0.5;" width="59" x="281" y="360.3119"/><text fill="#000000" font-family="sans-serif" font-size="14" lengthAdjust="spacing" textLength="45" x="288" y="383.5519">george</text><rect fill="#FFFFFF" height="268.216" style="stroke:#181818;stroke-width:1.0;" width="10" x="98.5" y="75.0959"/><rect fill="#FFFFFF" height="154.744" style="stroke:#181818;stroke-width:1.0;" width="10" x="103.5" y="115.9199"/><rect fill="#005500" height="78.0959" style="stroke:#181818;stroke-width:1.0;" width="10" x="108.5" y="153.744"/><polygon fill="#181818" points="86.5,71.0959,96.5,75.0959,86.5,79.0959,90.5,75.0959" style="stroke:#181818;stroke-width:1.0;"/><line style="stroke:#181818;stroke-width:1.0;" x1="27.5" x2="92.5" y1="75.0959" y2="75.0959"/><text fill="#000000" font-family="sans-serif" font-size="13" lengthAdjust="spacing" textLength="31" x="34.5" y="69.3519">hello</text><line style="stroke:#181818;stroke-width:1.0;" x1="108.5" x2="155.5" y1="102.9199" y2="102.9199"/><line style="stroke:#181818;stroke-width:1.0;" x1="155.5" x2="155.5" y1="102.9199" y2="115.9199"/><line style="stroke:#181818;stroke-width:1.0;" x1="114.5" x2="155.5" y1="115.9199" y2="115.9199"/><polygon fill="#181818" points="124.5,111.9199,114.5,115.9199,124.5,119.9199,120.5,115.9199" style="stroke:#181818;stroke-width:1.0;"/><text fill="#000000" font-family="sans-serif" font-size="13" lengthAdjust="spacing" textLength="46" x="120.5" y="97.1759">self call</text><polygon fill="#181818" points="129.5,149.744,119.5,153.744,129.5,157.744,125.5,153.744" style="stroke:#181818;stroke-width:1.0;"/><line style="stroke:#181818;stroke-width:1.0;" x1="123.5" x2="252.5" y1="153.744" y2="153.744"/><text fill="#000000" font-family="sans-serif" font-size="13" lengthAdjust="spacing" textLength="116" x="135.5" y="148">hello from thread 2</text><polygon fill="#181818" points="269,182.568,279,186.568,269,190.568,273,186.568" style="stroke:#181818;stroke-width:1.0;"/><line style="stroke:#181818;stroke-width:1.0;" x1="118.5" x2="275" y1="186.568" y2="186.568"/><text fill="#000000" font-family="sans-serif" font-size="13" lengthAdjust="spacing" textLength="38" x="125.5" y="180.824">create</text><rect fill="#E2E2F0" height="34.2719" rx="2.5" ry="2.5" style="stroke:#181818;stroke-width:0.5;" width="59" x="281" y="161.744"/><text fill="#000000" font-family="sans-serif" font-size="14" lengthAdjust="spacing" textLength="45" x="288" y="184.9839">george</text><polygon fill="#181818" points="241.5,227.8399,251.5,231.8399,241.5,235.8399,245.5,231.8399" style="stroke:#181818;stroke-width:1.0;"/><line style="stroke:#181818;stroke-width:1.0;stroke-dasharray:2.0,2.0;" x1="113.5" x2="247.5" y1="231.8399" y2="231.8399"/><text fill="#000000" font-family="sans-serif" font-size="13" lengthAdjust="spacing" textLength="99" x="120.5" y="226.0959">done in thread 2</text><line style="stroke:#181818;stroke-width:1.0;stroke-dasharray:2.0,2.0;" x1="113.5" x2="155.5" y1="269.6639" y2="269.6639"/><line style="stroke:#181818;stroke-width:1.0;stroke-dasharray:2.0,2.0;" x1="155.5" x2="155.5" y1="269.6639" y2="282.6639"/><line style="stroke:#181818;stroke-width:1.0;stroke-dasharray:2.0,2.0;" x1="108.5" x2="155.5" y1="282.6639" y2="282.6639"/><polygon fill="#181818" points="118.5,278.6639,108.5,282.6639,118.5,286.6639,114.5,282.6639" style="stroke:#181818;stroke-width:1.0;"/><text fill="#000000" font-family="sans-serif" font-size="13" lengthAdjust="spacing" textLength="12" x="120.5" y="263.9199">rc</text><polygon fill="#181818" points="298.5,306.4879,308.5,310.4879,298.5,314.4879,302.5,310.4879" style="stroke:#181818;stroke-width:1.0;"/><line style="stroke:#181818;stroke-width:1.0;" x1="108.5" x2="304.5" y1="310.4879" y2="310.4879"/><text fill="#000000" font-family="sans-serif" font-size="13" lengthAdjust="spacing" textLength="38" x="115.5" y="304.7439">delete</text><line style="stroke:#A80036;stroke-width:2.0;" x1="301.5" x2="319.5" y1="301.4879" y2="319.4879"/><line style="stroke:#A80036;stroke-width:2.0;" x1="301.5" x2="319.5" y1="319.4879" y2="301.4879"/><polygon fill="#181818" points="38.5,339.3119,28.5,343.3119,38.5,347.3119,34.5,343.3119" style="stroke:#181818;stroke-width:1.0;"/><line style="stroke:#181818;stroke-width:1.0;stroke-dasharray:2.0,2.0;" x1="32.5" x2="102.5" y1="343.3119" y2="343.3119"/><text fill="#000000" font-family="sans-serif" font-size="13" lengthAdjust="spacing" textLength="47" x="44.5" y="337.5679">success</text><!--SRC=[NSp12i8m3CRnUvyYmzj0AC8k7doNDlss5M83RUhpEy4wy1R-oI-XcmQs_0e6qkA2P0PT7nGrqfrsYAZxpB_K82jn474nYun-yNvPl1-4rgfFihqY9BgD1nkqRg1vFixuM1bSXVLQA6a1vNAARw_yPwVfi0c2qxREZDRS6m00]--></g></svg>