<?xml version="1.0" encoding="us-ascii" standalone="no"?><svg xmlns="http://www.w3.org/2000/svg" xmlns:xlink="http://www.w3.org/1999/xlink" contentStyleType="text/css" height="239px" preserveAspectRatio="none" style="width:107px;height:239px;background:#FFFFFF;" version="1.1" viewBox="0 0 107 239" width="107px" zoomAndPan="magnify"><defs/><g><line style="stroke:#181818;stroke-width:0.5;stroke-dasharray:5.0,5.0;" x1="25" x2="25" y1="40.2719" y2="200.2719"/><line style="stroke:#181818;stroke-width:0.5;stroke-dasharray:5.0,5.0;" x1="78" x2="78" y1="40.2719" y2="200.2719"/><rect fill="#E2E2F0" height="34.2719" rx="2.5" ry="2.5" style="stroke:#181818;stroke-width:0.5;" width="40" x="5" y="5"/><text fill="#000000" font-family="sans-serif" font-size="14" lengthAdjust="spacing" textLength="26" x="12" y="28.2399">Bob</text><rect fill="#E2E2F0" height="34.2719" rx="2.5" ry="2.5" style="stroke:#181818;stroke-width:0.5;" width="40" x="5" y="199.2719"/><text fill="#000000" font-family="sans-serif" font-size="14" lengthAdjust="spacing" textLength="26" x="12" y="222.5118">Bob</text><rect fill="#E2E2F0" height="34.2719" rx="2.5" ry="2.5" style="stroke:#181818;stroke-width:0.5;" width="46" x="55" y="5"/><text fill="#000000" font-family="sans-serif" font-size="14" lengthAdjust="spacing" textLength="32" x="62" y="28.2399">Alice</text><rect fill="#E2E2F0" height="34.2719" rx="2.5" ry="2.5" style="stroke:#181818;stroke-width:0.5;" width="46" x="55" y="199.2719"/><text fill="#000000" font-family="sans-serif" font-size="14" lengthAdjust="spacing" textLength="32" x="62" y="222.5118">Alice</text><line style="stroke:#181818;stroke-width:2.0;" x1="60" x2="70" y1="51.2719" y2="61.2719"/><line style="stroke:#181818;stroke-width:2.0;" x1="60" x2="70" y1="61.2719" y2="51.2719"/><line style="stroke:#181818;stroke-width:1.0;" x1="25" x2="65" y1="56.2719" y2="56.2719"/><polygon fill="#181818" points="66,66.2719,76,70.2719,66,74.2719,70,70.2719" style="stroke:#181818;stroke-width:1.0;"/><line style="stroke:#181818;stroke-width:1.0;" x1="25" x2="72" y1="70.2719" y2="70.2719"/><line style="stroke:#181818;stroke-width:1.0;" x1="76" x2="66" y1="84.2719" y2="80.2719"/><line style="stroke:#181818;stroke-width:1.0;" x1="76" x2="66" y1="84.2719" y2="88.2719"/><line style="stroke:#181818;stroke-width:1.0;" x1="25" x2="77" y1="84.2719" y2="84.2719"/><polygon fill="#181818" points="66,94.2719,76,98.2719,66,98.2719" style="stroke:#181818;stroke-width:1.0;"/><line style="stroke:#181818;stroke-width:1.0;" x1="25" x2="77" y1="98.2719" y2="98.2719"/><line style="stroke:#181818;stroke-width:1.0;" x1="26" x2="36" y1="112.2719" y2="116.2719"/><line style="stroke:#181818;stroke-width:1.0;" x1="25" x2="77" y1="112.2719" y2="112.2719"/><line style="stroke:#181818;stroke-width:1.0;" x1="26" x2="36" y1="126.2719" y2="122.2719"/><line style="stroke:#181818;stroke-width:1.0;stroke-dasharray:2.0,2.0;" x1="25" x2="77" y1="126.2719" y2="126.2719"/><ellipse cx="77.5" cy="139.5219" fill="none" rx="4" ry="4" style="stroke:#181818;stroke-width:1.5;"/><polygon fill="#181818" points="60.5,136.2719,70.5,140.2719,60.5,144.2719,64.5,140.2719" style="stroke:#181818;stroke-width:1.0;"/><line style="stroke:#181818;stroke-width:1.0;" x1="25" x2="66.5" y1="140.2719" y2="140.2719"/><ellipse cx="24.5" cy="153.5219" fill="none" rx="4" ry="4" style="stroke:#181818;stroke-width:1.5;"/><line style="stroke:#181818;stroke-width:1.0;" x1="31.5" x2="41.5" y1="154.2719" y2="158.2719"/><line style="stroke:#181818;stroke-width:1.0;stroke-dasharray:2.0,2.0;" x1="25" x2="77" y1="154.2719" y2="154.2719"/><polygon fill="#181818" points="36,164.2719,26,168.2719,36,172.2719,32,168.2719" style="stroke:#181818;stroke-width:1.0;"/><polygon fill="#181818" points="66,164.2719,76,168.2719,66,172.2719,70,168.2719" style="stroke:#181818;stroke-width:1.0;"/><line style="stroke:#181818;stroke-width:1.0;" x1="30" x2="72" y1="168.2719" y2="168.2719"/><polygon fill="#181818" points="36,178.2719,26,182.2719,36,186.2719,32,182.2719" style="stroke:#181818;stroke-width:1.0;"/><ellipse cx="77.5" cy="181.5219" fill="none" rx="4" ry="4" style="stroke:#181818;stroke-width:1.5;"/><polygon fill="#181818" points="60.5,178.2719,70.5,182.2719,60.5,186.2719,64.5,182.2719" style="stroke:#181818;stroke-width:1.0;"/><line style="stroke:#181818;stroke-width:1.0;" x1="30" x2="66.5" y1="182.2719" y2="182.2719"/><!--SRC=[SyfFKj2rgr1mpCbCJkLo0lDGE2Yy62HEJ8mk4azVNnV6XMhCHvBD1of6aRP1iSK6hXe0]--></g></svg>